<svg xmlns="http://www.w3.org/2000/svg" viewBox="0 0 1920 1080" width="1920" height="1080">
  <defs>
    <linearGradient id="grad" x1="0" y1="0" x2="0" y2="1">
      <stop offset="0%" stop-color="#1e293b"/>
      <stop offset="100%" stop-color="#0f172a"/>
    </linearGradient>
    <linearGradient id="hl" x1="0" y1="0" x2="1" y2="1">
      <stop offset="0%" stop-color="#2563eb" stop-opacity="0.15"/>
      <stop offset="100%" stop-color="#2563eb" stop-opacity="0.05"/>
    </linearGradient>
  </defs>
  <rect width="1920" height="1080" fill="url(#grad)"/>
  <rect width="1920" height="1080" fill="url(#hl)"/>
  <!-- City skyline silhouette -->
  <rect x="0" y="720" width="1920" height="360" fill="#1e293b" opacity="0.8"/>
  <rect x="100" y="640" width="80" height="440" fill="#334155" opacity="0.5"/>
  <rect x="200" y="620" width="60" height="460" fill="#334155" opacity="0.5"/>
  <rect x="320" y="670" width="100" height="410" fill="#334155" opacity="0.5"/>
  <rect x="500" y="690" width="90" height="390" fill="#334155" opacity="0.5"/>
  <rect x="650" y="650" width="70" height="430" fill="#334155" opacity="0.5"/>
  <rect x="780" y="680" width="120" height="400" fill="#334155" opacity="0.5"/>
  <rect x="950" y="660" width="80" height="420" fill="#334155" opacity="0.5"/>
  <rect x="1100" y="640" width="60" height="440" fill="#334155" opacity="0.5"/>
  <rect x="1220" y="700" width="100" height="380" fill="#334155" opacity="0.5"/>
  <rect x="1400" y="670" width="80" height="410" fill="#334155" opacity="0.5"/>
  <rect x="1550" y="630" width="70" height="450" fill="#334155" opacity="0.5"/>
  <rect x="1700" y="660" width="90" height="420" fill="#334155" opacity="0.5"/>
  <!-- Subtle building windows -->
  <rect x="330" y="690" width="15" height="15" fill="#2563eb" opacity="0.3"/>
  <rect x="350" y="690" width="15" height="15" fill="#2563eb" opacity="0.3"/>
  <rect x="330" y="710" width="15" height="15" fill="#2563eb" opacity="0.3"/>
  <rect x="660" y="670" width="12" height="12" fill="#2563eb" opacity="0.3"/>
  <rect x="1108" y="660" width="10" height="10" fill="#2563eb" opacity="0.3"/>
  <rect x="790" y="700" width="15" height="15" fill="#2563eb" opacity="0.3"/>
  <rect x="810" y="700" width="15" height="15" fill="#2563eb" opacity="0.3"/>
  <rect x="830" y="700" width="15" height="15" fill="#2563eb" opacity="0.3"/>
  <!-- Stars -->
  <circle cx="200" cy="80" r="1.5" fill="white" opacity="0.6"/>
  <circle cx="450" cy="150" r="1" fill="white" opacity="0.4"/>
  <circle cx="780" cy="100" r="1.5" fill="white" opacity="0.5"/>
  <circle cx="1200" cy="60" r="1" fill="white" opacity="0.6"/>
  <circle cx="1500" cy="130" r="1.5" fill="white" opacity="0.4"/>
  <circle cx="1700" cy="80" r="1" fill="white" opacity="0.5"/>
  <circle cx="350" cy="220" r="1" fill="white" opacity="0.3"/>
  <circle cx="900" cy="180" r="1.5" fill="white" opacity="0.4"/>
  <circle cx="1400" cy="250" r="1" fill="white" opacity="0.3"/>
</svg>